/* XPM */
static char * exit_xpm[] = {
"64 64 369 2",
"  	c #000000",
". 	c #010000",
"+ 	c #030101",
"@ 	c #010001",
"# 	c #060103",
"$ 	c #050102",
"% 	c #020101",
"& 	c #030102",
"* 	c #020001",
"= 	c #030000",
"- 	c #060100",
"; 	c #0A0100",
"> 	c #0C0200",
", 	c #100201",
"' 	c #0F0201",
") 	c #090100",
"! 	c #040100",
"~ 	c #020000",
"{ 	c #120301",
"] 	c #180401",
"^ 	c #1E0601",
"/ 	c #220702",
"( 	c #240802",
"_ 	c #280A02",
": 	c #270902",
"< 	c #210702",
"[ 	c #1B0501",
"} 	c #150301",
"| 	c #080100",
"1 	c #190501",
"2 	c #290A03",
"3 	c #2F0D03",
"4 	c #350F04",
"5 	c #391105",
"6 	c #3A1205",
"7 	c #3F1405",
"8 	c #3E1305",
"9 	c #381104",
"0 	c #320E04",
"a 	c #2D0C03",
"b 	c #200702",
"c 	c #150401",
"d 	c #0E0200",
"e 	c #130301",
"f 	c #1F0602",
"g 	c #300D03",
"h 	c #401406",
"i 	c #451607",
"j 	c #4A1908",
"k 	c #4E1A09",
"l 	c #4F1B09",
"m 	c #541D0A",
"n 	c #531C0A",
"o 	c #4D1A08",
"p 	c #481807",
"q 	c #431506",
"r 	c #371004",
"s 	c #260902",
"t 	c #1A0501",
"u 	c #0E0201",
"v 	c #050100",
"w 	c #2B0B03",
"x 	c #3C1205",
"y 	c #4C1908",
"z 	c #551D0A",
"A 	c #5A1F0B",
"B 	c #5E220C",
"C 	c #62230D",
"D 	c #63240E",
"E 	c #67250F",
"F 	c #66250E",
"G 	c #61230D",
"H 	c #5D210C",
"I 	c #581F0B",
"J 	c #521C09",
"K 	c #491807",
"L 	c #421506",
"M 	c #310E03",
"N 	c #3C1305",
"O 	c #471707",
"P 	c #511B09",
"Q 	c #5F220C",
"R 	c #65240E",
"S 	c #6D2810",
"T 	c #712A11",
"U 	c #722A11",
"V 	c #762C12",
"W 	c #7A2D13",
"X 	c #792D13",
"Y 	c #742B12",
"Z 	c #702911",
"` 	c #6A270F",
" .	c #571E0B",
"..	c #140301",
"+.	c #461707",
"@.	c #5B200B",
"#.	c #7C2F14",
"$.	c #833115",
"%.	c #843215",
"&.	c #883417",
"*.	c #8B3517",
"=.	c #863316",
"-.	c #813115",
";.	c #6F2910",
">.	c #61220D",
",.	c #4C1A08",
"'.	c #411506",
").	c #3D1305",
"!.	c #561E0A",
"~.	c #60220D",
"{.	c #732B11",
"].	c #7C2E14",
"^.	c #8C3618",
"/.	c #913819",
"(.	c #95391A",
"_.	c #993B1B",
":.	c #9C3D1B",
"<.	c #9B3C1B",
"[.	c #973A1A",
"}.	c #933919",
"|.	c #8F3718",
"1.	c #782D13",
"2.	c #5C210C",
"3.	c #2C0B03",
"4.	c #5B200C",
"5.	c #843216",
"6.	c #923819",
"7.	c #9D3D1C",
"8.	c #A13F1D",
"9.	c #A5401E",
"0.	c #A9421F",
"a.	c #AC441F",
"b.	c #AB431F",
"c.	c #A7411E",
"d.	c #A3401D",
"e.	c #9F3E1C",
"f.	c #963A1A",
"g.	c #8A3417",
"h.	c #772C12",
"i.	c #6B270F",
"j.	c #511C09",
"k.	c #803015",
"l.	c #9A3C1B",
"m.	c #A6411E",
"n.	c #AD4420",
"o.	c #B14620",
"p.	c #B44721",
"q.	c #B84922",
"r.	c #BB4A23",
"s.	c #BA4A23",
"t.	c #B74822",
"u.	c #B34721",
"v.	c #AF4520",
"w.	c #A4401D",
"x.	c #65250E",
"y.	c #853216",
"z.	c #8E3618",
"A.	c #A23F1D",
"B.	c #AE4420",
"C.	c #B54722",
"D.	c #BF4C24",
"E.	c #C24D25",
"F.	c #C54E25",
"G.	c #C75026",
"H.	c #C74F26",
"I.	c #C44E25",
"J.	c #C14D24",
"K.	c #BE4B24",
"L.	c #B94923",
"M.	c #B24621",
"N.	c #AC431F",
"O.	c #9E3D1C",
"P.	c #8A3517",
"Q.	c #732B12",
"R.	c #070100",
"S.	c #2E0C03",
"T.	c #B64822",
"U.	c #BC4B23",
"V.	c #C64F26",
"W.	c #CB5127",
"X.	c #CD5227",
"Y.	c #CF5328",
"Z.	c #D05328",
"`.	c #D25429",
" +	c #D15428",
".+	c #CC5227",
"++	c #C95026",
"@+	c #C04C24",
"#+	c #160401",
"$+	c #9E3E1C",
"%+	c #C85026",
"&+	c #CC5127",
"*+	c #D45529",
"=+	c #D6562A",
"-+	c #D8572A",
";+	c #DA582B",
">+	c #DA582A",
",+	c #D35529",
"'+	c #CE5328",
")+	c #CA5127",
"!+	c #AE4520",
"~+	c #A8421E",
"{+	c #B34621",
"]+	c #BD4B23",
"^+	c #D55529",
"/+	c #DB582B",
"(+	c #DE592C",
"_+	c #DF5A2C",
":+	c #E05A2C",
"<+	c #E15B2C",
"[+	c #E05B2C",
"}+	c #DD592B",
"|+	c #D7562A",
"1+	c #531D0A",
"2+	c #823115",
"3+	c #9C3C1B",
"4+	c #BD4B24",
"5+	c #CE5228",
"6+	c #DE5A2C",
"7+	c #E35C2D",
"8+	c #E55D2D",
"9+	c #E65D2E",
"0+	c #E55C2D",
"a+	c #E25B2D",
"b+	c #C34E25",
"c+	c #0D0200",
"d+	c #7D2F14",
"e+	c #D55629",
"f+	c #D9572A",
"g+	c #E45C2D",
"h+	c #E75D2E",
"i+	c #E85E2E",
"j+	c #E95E2E",
"k+	c #EA5F2F",
"l+	c #EB5F2F",
"m+	c #EA5F2E",
"n+	c #E75E2E",
"o+	c #E65D2D",
"p+	c #873316",
"q+	c #94391A",
"r+	c #B04520",
"s+	c #EC602F",
"t+	c #ED602F",
"u+	c #EE602F",
"v+	c #EF6130",
"w+	c #EE6130",
"x+	c #EC5F2F",
"y+	c #E25B2C",
"z+	c #1F0601",
"A+	c #351004",
"B+	c #6E2810",
"C+	c #7F3014",
"D+	c #F06130",
"E+	c #F16230",
"F+	c #3E1405",
"G+	c #501B09",
"H+	c #64240E",
"I+	c #953A1A",
"J+	c #B14621",
"K+	c #CA5027",
"L+	c #F06230",
"M+	c #F26230",
"N+	c #F36331",
"O+	c #F46331",
"P+	c #F26231",
"Q+	c #190401",
"R+	c #69260F",
"S+	c #7B2E14",
"T+	c #8D3618",
"U+	c #DC592B",
"V+	c #F56331",
"W+	c #F56431",
"X+	c #361004",
"Y+	c #4B1908",
"Z+	c #5F220D",
"`+	c #712911",
" @	c #F66431",
".@	c #F66432",
"+@	c #F76432",
"@@	c #3B1205",
"#@	c #E35B2D",
"$@	c #F76532",
"%@	c #2A0B03",
"&@	c #411406",
"*@	c #551E0A",
"=@	c #68260F",
"-@	c #893417",
";@	c #F86532",
">@	c #6A260F",
",@	c #5A200B",
"'@	c #F96532",
")@	c #2C0C03",
"!@	c #C95027",
"~@	c #F36231",
"{@	c #933819",
"]@	c #6C2710",
"^@	c #983B1A",
"/@	c #C14D25",
"(@	c #A03E1C",
"_@	c #D65629",
":@	c #DC582B",
"<@	c #441606",
"[@	c #1C0501",
"}@	c #7A2E13",
"|@	c #3F1406",
"1@	c #7E2F14",
"2@	c #381004",
"3@	c #481808",
"4@	c #4B1909",
"5@	c #401507",
"6@	c #350F05",
"7@	c #280A03",
"8@	c #4A1909",
"9@	c #411507",
"0@	c #3A1206",
"a@	c #2F0D05",
"b@	c #230803",
"c@	c #170402",
"d@	c #371007",
"e@	c #300E07",
"f@	c #270A07",
"g@	c #1B0604",
"h@	c #100302",
"i@	c #060201",
"j@	c #2B0B04",
"k@	c #250A08",
"l@	c #21090A",
"m@	c #170507",
"n@	c #0E0304",
"o@	c #070103",
"p@	c #1A0402",
"q@	c #190606",
"r@	c #150407",
"s@	c #18070C",
"t@	c #130509",
"u@	c #0C0306",
"v@	c #0B0303",
"w@	c #100307",
"x@	c #1D0A12",
"y@	c #16060C",
"z@	c #15060C",
"A@	c #0D0306",
"B@	c #070203",
"C@	c #080204",
"D@	c #17070D",
"E@	c #19080F",
"F@	c #1D0911",
"G@	c #0D0307",
"H@	c #110409",
"I@	c #1E0A13",
"J@	c #1D0912",
"K@	c #16060D",
"L@	c #0E0307",
"M@	c #1B0810",
"N@	c #220D16",
"O@	c #1F0A13",
"P@	c #17070E",
"Q@	c #0E0407",
"R@	c #070204",
"S@	c #1C0911",
"T@	c #240D17",
"U@	c #1F0B13",
"V@	c #18070E",
"W@	c #0F0407",
"X@	c #040102",
"Y@	c #100408",
"Z@	c #1A080F",
"`@	c #210C15",
" #	c #0F0408",
"                                                                                                                                ",
"                                                                                                                        . + + . ",
"                                                                                                                      @ # $ .   ",
"                                                                                                                    + $ % . .   ",
"                                                                                                                  & $ @ .       ",
"                                                            . . . .                                             * % .           ",
"                                                  . = - ; > , , , , ' ; ) ! ~                                   @ .             ",
"                                            . - > { ] ^ / ( _ _ _ _ : / < [ } ' ) !                                             ",
"                                        = | { 1 ( 2 3 4 5 6 7 7 7 7 8 5 9 0 a : b c d ! ~                                       ",
"                                    . | e f 2 g 6 h i j k l m m m m n k o p q 8 r a s t u !                                     ",
"                                  v e f w 4 x i y z A B C D E E E E F C G H I J K L 5 M s t d ~                                 ",
"                              . ; 1 s M N O P A Q R S T U V W W W W X Y T Z ` C H  .o q 9 a < ..!                               ",
"                            = ' f w 9 +.P @.D ` U V #.$.%.&.*.*.*.*.*.=.$.-.W Y ;.E >. .,.'.0 : 1 |                             ",
"                          ! ' < M ).y !.~.` {.].%.&.^./.(._.:.:.:.:.<.[.}.|.*.=.-.1.Z F 2.J +.9 3.t | ~                         ",
"                        = , < 0 L o 4.R Z ].5.^.6._.7.8.9.0.a.a.a.a.b.c.d.e.<.f.|.g.-.h.i.G  .p N 3.t |                         ",
"                      = ' < 0 q j.2.` Y k.g.6.l.8.m.n.o.p.q.r.r.r.r.s.t.u.v.b.w.e.[.|.=.].Z x. .,.N 3.t |                       ",
"                    . > < 0 q j.H i.X y.z.[.A.0.B.C.r.D.E.F.G.G.G.G.H.I.J.K.L.M.N.c.O.}.P.k.Q.x.I ,.N 3.1 !                     ",
"                    R.[ S.8 k H i.X =.6.<.m.B.T.U.E.V.W.X.Y.Z.`.`. +Z.Y..+++I.@+L.u.b.A.[.z.-.Q.x. .p 9 : ..~                   ",
"                  ! #+_ 6 o 2.i.X =.}.$+c.M.L.J.%+&+Z.*+=+-+-+;+;+>+-+-+=+,+'+)+V.K.t.!+d.l.z.-.Q.x. .+.0 < d                   ",
"                . > / 4 p I E V =.}.e.~+{+]+I.W. +^+-+/+(+_+:+<+<+[+_+_+}+;+|+,+Y.++J.L.!+w.l.z.k.Z G J '.a t !                 ",
"                v ] S.h 1+C T 2+|.3+~+{+4+H.5+,+|+/+6+<+7+8+8+9+9+9+8+0+a+:+}+>+=+ +W.b+L.!+d.[.P.].i.2.,.9 s u ~               ",
"              . c+( 5 j H S d+*._.c.{+4+H.Y.e+f+6+<+g+h+i+j+k+l+l+l+m+j+n+o+7+:+}+-+,+&+b+L.!+A.}.=.h.F  .q M t !               ",
"              ! ] S.h m E V p+q+d.r+r.F.Y.e+;+_+7+o+i+k+s+t+u+v+v+w+u+t+x+m+n+0+y+}+-+,+W.J.t.b.O.|.-.Z >.o 5 s d               ",
"            . ; z+A+j H B+C+|.7.N.t.E..+*+;+_+7+h+m+s+u+v+D+E+E+E+E+E+D+v+t+l+j+o+y+}+-+ +++K.u.c.[.g.1.E  .L a c !             ",
"            ~ { 2 F+G+H+V p+I+w.J+D.K+`.-+_+7+n+k+t+v+L+M+N+N+O+O+O+N+P+E+D+w+x+j+o+y+}+=+Y.V.L.N.e.|.-.;.H K r b )             ",
"            ! Q+g +.I R+S+T+:.0.q.I.5+=+U+a+9+m+t+v+E+N+O+V+W+W+W+W+V+O+N+P+L+w+x+j+0+:+>+,+)+@+M.w.f.=.Y C J 8 : '             ",
"            | z+X+Y+Z+`+k./.8.r+K.%+`.;+_+8+j+t+v+E+N+O+W+ @.@+@+@+@ @ @V+O+P+L+w+l+n+7+}+|+'+I.L.b.<.*.W ` I q a } ~           ",
"          . c+( @@G+H+h.p+I+m.C.E.X.=+U+#@i+l+v+E+N+O+ @ @+@+@$@$@$@+@+@ @W+O+P+D+t+m+o+:+;+,+++K.v.e.|.-.Z H p 0 [ !           ",
"          ~ e %@&@*@=@1.-@_.0.q.V.Z.f+_+g+j+t+D+M+O+W+ @+@;@;@;@;@;@;@$@+@ @V+N+E+v+x+n+a+}+=+.+J.u.d.}.$.T G o 9 < )           ",
"          ~ ..w L !.>@S+T+O.n.U.%+`./+<+9+k+u+E+N+W+ @+@;@;@;@;@;@;@;@;@$@+@ @O+P+D+t+j+0+_+-+Y.I.t.c.[.=.Y C k 5 / ;           ",
"          ! Q+g +.,@B+k./.A.J+D.W.,+/+y+h+l+v+M+O+W++@$@;@;@;@'@'@;@;@;@;@+@ @V+N+E+u+m+8+_+-+Z.H.s.b.<.*.X F n 8 : '           ",
"          v t M O 4.;.-.6.A.M.@+&+^+U+7+i+s+D+P+O+ @+@;@;@;@'@'@'@'@;@;@;@$@+@W+O+E+w+l+9+[+>+ +G.r.a.:.*.W E m 7 _ , .         ",
"          v t M O 4.;.-.6.A.M.@+&+e+}+7+i+s+D+P+O+ @+@;@;@;@'@'@'@'@'@;@;@$@+@W+O+E+v+l+9+<+;+`.G.r.a.:.*.W E m 7 _ , .         ",
"          v t M O 4.;.-.6.A.M.@+&+e+}+7+i+s+D+P+O+ @+@;@;@;@'@'@'@'@'@;@;@$@+@W+O+E+v+l+9+<+;+`.G.r.a.:.*.W E m 7 _ , .         ",
"          v t M O 4.;.-.6.A.M.@+W.,+/+a+n+x+v+M+O+ @+@$@;@;@;@'@'@'@;@;@;@+@.@W+N+E+u+k+8+:+-+Z.G.r.a.:.*.W E m 7 _ , .         ",
"          = } )@q  .i.d+|.e.v.4+!@,+/+y+h+l+w+E+O+W+ @+@;@;@;@;@;@;@;@;@;@+@ @V+N+D+t+j+8+_+-+Y.F.q.0._.&.V D l 6 ( >           ",
"          ~ ..w L !.R+X P.<.b.s.H. +f+:+8+m+t+L+~@O+ @+@$@;@;@;@;@;@;@;@+@ @W+O+M+v+s+i+7+(+=+X.E.p.9.(.%.U C k 5 / ;           ",
"          . ' : ).J F 1.-@[.c.T.I.Y.|+}+7+i+s+v+E+O+V+ @+@+@$@;@;@;@$@+@ @ @O+N+L+u+k+h+<+/+*+W.D.o.8./.$.T B j 4 ^ -           ",
"          . ) < 9 o G Q.2+{@d.{+@+)+*+/+<+9+m+u+D+M+O+V+ @ @+@+@+@+@+@ @W+O+N+E+v+s+i+g+6+-+Z.V.r.n.7.^.#.S A i 3 ] =           ",
"            v [ 0 p 4.]@d+|.$+N.s.V.Y.-+}+7+n+l+u+D+M+O+O+W+ @ @ @ @W+W+O+N+E+v+t+m+o+<+/+^+&+E.C.m._.&.V R z h 2 { .           ",
"            = } )@L 1+F X g.^@m.u./@&+,+;+[+0+i+x+u+D+E+~@O+O+O+O+O+O+N+M+E+v+t+k+h+7+6+|+ +%+U.B.8.6.%.U Q y 6 ( >             ",
"            . c+/ 5 o ~.Z 2+6.(@B.s.F.Y._@:@<+8+i+l+u+v+L+E+M+P+P+P+M+E+D+v+t+m+n+7+_+f+,+W.J.T.0.l.^.].` A i g 1 -             ",
"              - [ M <@I ` W P.^@c.{+4+%+ +|+:@<+0+n+m+s+t+w+v+D+D+D+v+u+t+l+j+9+7+_+;+e+5+I.L.B.A.6.5.{.D P x 2 { .             ",
"              ~ , _ x k G Z 2+|.7.b.T.J.)+ +|+:@[+7+9+i+m+l+x+s+s+s+l+k+j+i+8+a+_+;+e+Y.H.]+M.m.[.g.].` @.O 4 f |               ",
"              . R.[@0 <@ .F V =.}.(@N.t./@)+ +_@;+}+<+7+8+h+n+i+i+i+h+9+g+#@_+U+-+*+Y.H.4+{+c.<.z.k.Z ~.P N w e =               ",
"                ~ , s 5 o 2.i.}@P.[.A.N.t.J.%+Y.,+-+/+}+:+y+a+7+7+7+y+<+_+U+;+=+`..+F.4+{+~+$+6.y.Y R !.+.M f |                 ",
"                  - t )@|@J G Z 1@*.^@A.N.T.4+F.&+Y.*+|+f+/+/+}+}+U+/+/+f+=+`.5+K+E.r.{+~+e.}.=.X ` 4.y 9 s e .                 ",
"                  . > b 0 <@1+C Z 1@*.[.(@b.{+s./@V.)+Y. +,+,+e+e+^+,+`.Z.X.%+I.D.t.r+c.3+}.=.X i.2.o ).w 1 v                   ",
"                    ~ { s 2@p !.C Z 1@P.}.7.c.B.u.s.@+I.H.!@W.&+&+&+W.%+V.E.K.q.J+N.d._.|.=.X i.H j.L M f ;                     ",
"                      v #+_ 5 K !.C Z }@=.|.^@(@m.N.{+T.s.4+@+@+@+@+D.U.q.C.r+0.w.7.q+*.2+V i.H j.q 0 < ' .                     ",
"                      . - #+_ 5 p 1+G i.V 2+P.6.^@$+d.c.b.v.M.M.M.M.J+n.0.m.8.:.I+|.p+d+T E 2.k q 0 < ' =                       ",
"                        . R.#+_ 2@<@J 2.F Z W 2+g.|.{@[.<.e.A.A.A.A.A.O._.I+/.T+p+C+V S C I o 8 0 < , !                         ",
"                          . - #+s 0 |@o  .G ` Z X d+2+-@P.|.6.6.6.6./.T+-@p+k.S+V B+E H 1+3@6 S.< ' =                           ",
"                            . v { b )@5 <@k I ~.F ]@Q.1.X d+-.-.-.-.k.S+1.h.`+R+H+H m 4@5@6@7@[@> =                             ",
"                                ~ > t s 0 x <@o 1+4.G F R+i.;.;.;.;.B+>@=@H+Z+I G+8@9@0@a@b@c@| .                               ",
"                                  . - , [@_ M 5 L p o J !. .4.4.4.4.,@!.*@G+Y++.|@d@e@f@g@h@i@@                                 ",
"                                      ~ R., [ / )@0 9 ).L q O O O O +.L &@@@X+g j@k@l@m@n@o@+ @ .                               ",
"                                        . ~ - c+} [ < : w )@M M M M g w %@( z+p@q@r@s@t@u@# + @ .                               ",
"                                              . = v ) ' ..} t t t t Q+..e c+| v@w@x@y@z@A@B@+ @ .                               ",
"                                                    . . ~ = v v v v ! ~ ~ . @ C@D@E@F@y@G@B@& @ .                               ",
"                                                                            . A@H@I@J@K@L@B@& @ .                               ",
"                                                                            * G@M@N@O@P@Q@R@& * .                               ",
"                                                                            * H@S@T@U@V@W@C@X@* .                               ",
"                                                                            * Y@Z@`@O@V@ #C@& * .                               "};
