/* XPM */
static char * ground2_xpm[] = {
"64 64 471 2",
"  	c #010000",
". 	c #070203",
"+ 	c #060203",
"@ 	c #0D0306",
"# 	c #110509",
"$ 	c #120509",
"% 	c #130509",
"& 	c #140509",
"* 	c #15060C",
"= 	c #19080F",
"- 	c #1C0911",
"; 	c #1F0B13",
"> 	c #200B13",
", 	c #16060C",
"' 	c #210C15",
") 	c #240D17",
"! 	c #260F19",
"~ 	c #28101A",
"{ 	c #2A111C",
"] 	c #2C121D",
"^ 	c #2F1420",
"/ 	c #311521",
"( 	c #331622",
"_ 	c #341623",
": 	c #000000",
"< 	c #2E131E",
"[ 	c #361724",
"} 	c #391926",
"| 	c #3A1A27",
"1 	c #3B1A28",
"2 	c #3D1B29",
"3 	c #3E1C2A",
"4 	c #401D2C",
"5 	c #431E2E",
"6 	c #441F2F",
"7 	c #452030",
"8 	c #462031",
"9 	c #371825",
"0 	c #421E2D",
"a 	c #492233",
"b 	c #4B2334",
"c 	c #4E2436",
"d 	c #4F2537",
"e 	c #502538",
"f 	c #522739",
"g 	c #512638",
"h 	c #502637",
"i 	c #4E2437",
"j 	c #4C2335",
"k 	c #4A2233",
"l 	c #3F1C2B",
"m 	c #4A2334",
"n 	c #4D2436",
"o 	c #512639",
"p 	c #54283B",
"q 	c #572A3D",
"r 	c #5A2B3F",
"s 	c #5C2C41",
"t 	c #5D2D41",
"u 	c #5E2E43",
"v 	c #5E2D42",
"w 	c #5D2D42",
"x 	c #5B2B3F",
"y 	c #592A3E",
"z 	c #56293C",
"A 	c #472131",
"B 	c #502537",
"C 	c #55283B",
"D 	c #592B3E",
"E 	c #5C2D41",
"F 	c #612F44",
"G 	c #643147",
"H 	c #673249",
"I 	c #69344B",
"J 	c #6A344B",
"K 	c #6C354D",
"L 	c #6D364D",
"M 	c #6C354C",
"N 	c #6B344C",
"O 	c #68334A",
"P 	c #663248",
"Q 	c #633046",
"R 	c #5F2E43",
"S 	c #5B2C41",
"T 	c #562A3C",
"U 	c #482131",
"V 	c #602E44",
"W 	c #653147",
"X 	c #69334B",
"Y 	c #723851",
"Z 	c #753A53",
"` 	c #763B55",
" .	c #793C56",
"..	c #7A3D57",
"+.	c #7B3D57",
"@.	c #763A54",
"#.	c #733952",
"$.	c #713750",
"%.	c #6D354D",
"&.	c #53273A",
"*.	c #653148",
"=.	c #703850",
"-.	c #763B54",
";.	c #7E3F5A",
">.	c #82415D",
",.	c #83425E",
"'.	c #864360",
").	c #874461",
"!.	c #884462",
"~.	c #80405C",
"{.	c #753953",
"].	c #703750",
"^.	c #69334A",
"/.	c #57293C",
"(.	c #4E2537",
"_.	c #56283C",
":.	c #5E2E42",
"<.	c #6B354C",
"[.	c #713850",
"}.	c #783C56",
"|.	c #884461",
"1.	c #8A4664",
"2.	c #8E4866",
"3.	c #904968",
"4.	c #934A6A",
"5.	c #954B6B",
"6.	c #944B6B",
"7.	c #934B6A",
"8.	c #914968",
"9.	c #8E4765",
"0.	c #8B4663",
"a.	c #7D3F5A",
"b.	c #623045",
"c.	c #592B3F",
"d.	c #512738",
"e.	c #4A2234",
"f.	c #582A3D",
"g.	c #602F44",
"h.	c #6F374F",
"i.	c #773B54",
"j.	c #85435F",
"k.	c #8B4664",
"l.	c #8F4967",
"m.	c #974D6D",
"n.	c #9B4F70",
"o.	c #9D5071",
"p.	c #A05173",
"q.	c #A25274",
"r.	c #A15274",
"s.	c #A05273",
"t.	c #9E5072",
"u.	c #9A4F6F",
"v.	c #904867",
"w.	c #8A4663",
"x.	c #84425F",
"y.	c #7D3E59",
"z.	c #4C2434",
"A.	c #622F45",
"B.	c #83415D",
"C.	c #894563",
"D.	c #964C6C",
"E.	c #9F5172",
"F.	c #A35376",
"G.	c #A65578",
"H.	c #A95679",
"I.	c #AB587C",
"J.	c #AD597C",
"K.	c #AC587C",
"L.	c #A9577A",
"M.	c #A35475",
"N.	c #884562",
"O.	c #81415C",
"P.	c #793C57",
"Q.	c #743A53",
"R.	c #854360",
"S.	c #8D4765",
"T.	c #944B6A",
"U.	c #A55477",
"V.	c #AE597D",
"W.	c #B05B7F",
"X.	c #B25C81",
"Y.	c #B55D83",
"Z.	c #B65E84",
"`.	c #B75E84",
" +	c #B65E83",
".+	c #B35C81",
"++	c #AD597D",
"@+	c #AA577B",
"#+	c #8C4664",
"$+	c #85425F",
"%+	c #7C3E59",
"&+	c #723951",
"*+	c #683349",
"=+	c #482132",
"-+	c #582A3E",
";+	c #9E5172",
">+	c #AF5A7E",
",+	c #BA6086",
"'+	c #BC6188",
")+	c #BD6289",
"!+	c #BE628A",
"~+	c #BF638A",
"{+	c #BC6189",
"]+	c #B35C82",
"^+	c #B05A7F",
"/+	c #A45477",
"(+	c #8F4866",
"_+	c #874460",
":+	c #492133",
"<+	c #914A68",
"[+	c #9A4E6F",
"}+	c #A05274",
"|+	c #A85679",
"1+	c #AE597E",
"2+	c #B85F85",
"3+	c #BB6087",
"4+	c #BE638A",
"5+	c #C2648D",
"6+	c #C4668E",
"7+	c #C6668F",
"8+	c #C66690",
"9+	c #C76790",
"0+	c #C5668F",
"a+	c #C2658D",
"b+	c #C0638B",
"c+	c #B45D82",
"d+	c #A15374",
"e+	c #984E6D",
"f+	c #5B2C40",
"g+	c #502638",
"h+	c #472031",
"i+	c #723952",
"j+	c #924A69",
"k+	c #9B4F6F",
"l+	c #A25374",
"m+	c #BB6187",
"n+	c #BF638B",
"o+	c #C3658D",
"p+	c #C66790",
"q+	c #C96891",
"r+	c #CB6993",
"s+	c #CD6A94",
"t+	c #CE6B95",
"u+	c #CC6A94",
"v+	c #CA6992",
"w+	c #C4658E",
"x+	c #994E6E",
"y+	c #864460",
"z+	c #7B3E58",
"A+	c #70374F",
"B+	c #86435F",
"C+	c #904967",
"D+	c #AA577A",
"E+	c #B15B80",
"F+	c #B75F85",
"G+	c #BE6289",
"H+	c #C96892",
"I+	c #CF6B96",
"J+	c #D06C97",
"K+	c #D36D99",
"L+	c #D46E9A",
"M+	c #D26D99",
"N+	c #CF6C97",
"O+	c #CD6B95",
"P+	c #B95F85",
"Q+	c #984D6D",
"R+	c #84425E",
"S+	c #55283C",
"T+	c #4C2435",
"U+	c #773B55",
"V+	c #974D6C",
"W+	c #C3668E",
"X+	c #C76791",
"Y+	c #D26D98",
"Z+	c #D66F9B",
"`+	c #D7709C",
" @	c #D8709D",
".@	c #D9719E",
"+@	c #D6709C",
"@@	c #D56F9A",
"#@	c #D36E99",
"$@	c #CD6A95",
"%@	c #B95F86",
"&@	c #B15B81",
"*@	c #81405C",
"=@	c #4E2536",
"-@	c #5B2B40",
";@	c #C86891",
">@	c #D66F9C",
",@	c #D8719D",
"'@	c #DB729E",
")@	c #DC729F",
"!@	c #DC73A0",
"~@	c #DD74A1",
"{@	c #DB729F",
"]@	c #DA729E",
"^@	c #D8709C",
"/@	c #D56E9B",
"(@	c #CA6892",
"_@	c #C5668E",
":@	c #A75678",
"<@	c #9E5071",
"[@	c #6E364E",
"}@	c #613045",
"|@	c #783C55",
"1@	c #BD6188",
"2@	c #D16D98",
"3@	c #D56F9B",
"4@	c #DD73A0",
"5@	c #DE74A2",
"6@	c #DF75A3",
"7@	c #E075A3",
"8@	c #E175A3",
"9@	c #DF74A2",
"0@	c #DE74A1",
"a@	c #DA719E",
"b@	c #D36E9A",
"c@	c #A45476",
"d@	c #83425D",
"e@	c #653248",
"f@	c #954C6B",
"g@	c #C1648C",
"h@	c #D9719D",
"i@	c #E176A3",
"j@	c #E376A5",
"k@	c #E377A5",
"l@	c #E477A5",
"m@	c #E276A5",
"n@	c #E074A2",
"o@	c #DD73A1",
"p@	c #CE6B96",
"q@	c #BB6188",
"r@	c #B45C82",
"s@	c #9F5173",
"t@	c #53283A",
"u@	c #8F4867",
"v@	c #E577A7",
"w@	c #E578A7",
"x@	c #E678A7",
"y@	c #E577A6",
"z@	c #C0648B",
"A@	c #AF5A7F",
"B@	c #8E4766",
"C@	c #733951",
"D@	c #57293D",
"E@	c #A9567A",
"F@	c #B25B80",
"G@	c #BA6087",
"H@	c #CE6A95",
"I@	c #E477A6",
"J@	c #E679A7",
"K@	c #E779A8",
"L@	c #964D6C",
"M@	c #A25375",
"N@	c #E879A9",
"O@	c #E97AA9",
"P@	c #D7709D",
"Q@	c #AC597D",
"R@	c #6D364E",
"S@	c #512739",
"T@	c #9A4E6E",
"U@	c #C86790",
"V@	c #DC739F",
"W@	c #E176A4",
"X@	c #EA7AAA",
"Y@	c #CF6B97",
"Z@	c #C2648C",
"`@	c #B96086",
" #	c #994D6E",
".#	c #9C5070",
"+#	c #A75679",
"@#	c #E97AAA",
"##	c #EA7BAA",
"$#	c #EB7BAA",
"%#	c #E578A6",
"&#	c #CC6994",
"*#	c #B25B81",
"=#	c #9C4F70",
"-#	c #492333",
";#	c #934A69",
">#	c #EB7BAB",
",#	c #BD6288",
"'#	c #753A54",
")#	c #AB577B",
"!#	c #BD6189",
"~#	c #DA729F",
"{#	c #E879A8",
"]#	c #E175A4",
"^#	c #D46E99",
"/#	c #84435F",
"(#	c #AB587B",
"_#	c #C4668F",
":#	c #E276A4",
"<#	c #E87AA9",
"[#	c #D9709D",
"}#	c #783B55",
"|#	c #A8567A",
"1#	c #D16C97",
"2#	c #C4658D",
"3#	c #A75578",
"4#	c #743952",
"5#	c #B75F84",
"6#	c #54283A",
"7#	c #643047",
"8#	c #8A4563",
"9#	c #D6709B",
"0#	c #C6678F",
"a#	c #612F45",
"b#	c #6D354E",
"c#	c #CF6C96",
"d#	c #C2658C",
"e#	c #B25C80",
"f#	c #5C2C40",
"g#	c #AC597C",
"h#	c #B55E83",
"i#	c #D76F9C",
"j#	c #D16C98",
"k#	c #A35375",
"l#	c #80405B",
"m#	c #894562",
"n#	c #E075A2",
"o#	c #934B69",
"p#	c #602E43",
"q#	c #994D6D",
"r#	c #5A2B40",
"s#	c #653247",
"t#	c #D56E9A",
"u#	c #D06C98",
"v#	c #CA6993",
"w#	c #7F3F5A",
"x#	c #713951",
"y#	c #AE5A7E",
"z#	c #C3658E",
"A#	c #492132",
"B#	c #5D2C41",
"C#	c #713851",
"D#	c #7B3D58",
"E#	c #C96992",
"F#	c #A55577",
"G#	c #BC6187",
"H#	c #6F364F",
"I#	c #592A3F",
"J#	c #B85F86",
"K#	c #AD587D",
"L#	c #8C4764",
"M#	c #663148",
"N#	c #924A68",
"O#	c #A25275",
"P#	c #914967",
"Q#	c #7F405B",
"R#	c #9D5070",
"S#	c #974C6C",
"T#	c #52273A",
"U#	c #8D4865",
"V#	c #4F2637",
"W#	c #7C3E58",
"X#	c #55293C",
"Y#	c #643046",
"Z#	c #4C2334",
"`#	c #150609",
" $	c #56293D",
".$	c #582B3E",
"+$	c #110406",
"@$	c #0F0306",
"#$	c #100306",
"$$	c #0E0306",
"%$	c #020000",
"&$	c #080203",
"*$	c #120406",
"=$	c #090203",
"-$	c #0F0304",
"  . . . . . . + + + + @ @ @ @ @ @ @ @ @ @ # # # # $ % $ $ $ $ % % & % % % % % % % % @ @ @ @ @ @ @ @ @ @ @ @ @ @ @ @ + + + + + . ",
"  . @ @ @ @ @ @ @ # # # # # # * * = = = = - - - - ; ; ; ; ; ; ; > > > > ; ; - - - - = = = = , , , , , $ $ $ $ $ # # # # @ @ @ @ ",
"  @ @ @ @ @ @ @ # # # * # * * * = = - - ; ; ; ' ' ) ) ) ! ! ! ! ! ! ! ) ) ) ' ' ; ; ; - - = = , , , , , , $ # # # # # # @ @ @ @ ",
"  @ @ @ @ @ @ # # # # * * = = = - - ; ; ' ) ! ! ~ { { { ] ] ] ] ] ] ] { { { ~ ! ! ) ' ; ; - - = = = , , , * * # # # # # # @ @ @ ",
"  @ @ @ @ @ # # # * * * = = - - ; ' ) ! ~ ~ ] ] ^ / ( ( _ _ _ _ _ _ _ ( ( / ^ ] ] ~ ~ ! ) ' ; - - = = , * * * # # # # # # @ @ @ ",
": @ @ @ @ # # # * * * = - - ; ; ) ! ~ ] < < ( _ [ } | 1 2 2 3 3 3 2 2 1 | } [ _ ( < < ] ~ ! ) ; ; - - = = * * * # # # # # # @ @ ",
": @ @ @ # # # * * * = - - ; ' ) ~ { < / _ [ | 1 3 4 5 6 7 8 8 8 8 8 7 6 5 4 3 1 | [ _ / < { ~ ) ' ; - - = = * * * # # # # # @ @ ",
": @ @ # # # * * = = - ; ; ) ! { < ^ _ 9 1 3 0 6 8 a b c d e f f f g h i j k 8 6 0 3 1 9 _ ^ < { ! ) ; ; - = = * * * # # # # @ @ ",
": @ @ # # * * = - - ; ' ) ~ ] ^ ( 9 1 l 5 8 m n o p q r s t u u u v w x y z f d b A 5 l 1 9 ( ^ ] ~ ) ' ; - - = * * * # # # # @ ",
": @ # # * * * = - ; ' ) ~ ] / _ | 3 5 A b B C D E F G H I J K L K M N O P Q R S T o j U 5 3 | _ / ] ~ ) ' ; - = = * * * # # # # ",
": @ # # * * = - ; ' ) ~ < / [ 1 4 8 m d C r V W X L Y Z `  ...+..... .@.#.$.%.H Q w q o b 8 4 1 [ / < ~ ) ' ; - = = * * # # # # ",
": @ # # * = = - ' ) ~ ] ( 9 2 0 A n &.D V *.K =.-.+.;.>.,.'.).!.).).'.,.~.;. .{.].^.G t /.d U 0 2 9 ( ] ~ ) ' - = = * * # # # # ",
": # # * * = - ; ) ~ < / 9 3 6 a (._.:.G <.[.}.;.,.|.1.2.3.4.5.5.5.6.7.8.9.0.'.>.a.-.=.O b.c.d.e.6 3 9 / < ~ ) ; - = * * # # # # ",
": # # = = - ; ' ~ ] ( 9 3 6 m o f.g.O h.i.;.j.k.l.6.m.n.o.p.q.q.q.r.s.t.u.m.7.v.w.x.y.-.%.W E p z.6 3 9 ( ] ~ ' ; - = = # # # # ",
": # * = - ; ' ! { / 9 2 6 m o D A.J #...B.C.8.D.n.E.F.G.H.I.J.J.J.K.K.L.G.M.p.u.D.l.N.O.P.=.H v C z.6 2 9 / { ! ' ; - = * * # # ",
": # * = - ' ) { ^ [ 1 5 a o D b.<.Q.;.R.S.T.n.r.U.L.V.W.X.Y.Z.`.Z. +Y..+W.++@+U.s.n.6.#+$+%+&+*+v C b 5 1 [ ^ { ) ' - = * * # # ",
": * * - ; ) ! ] _ | 4 =+d -+b.<.Z ;.|.3.m.;+U.@+>+.+Z.,+'+)+!+~+~+~+)+{+,+`.]+^+@+/+;+m.(+_+y.&+*+t f :+4 | _ ] ! ) ; - * * # # ",
": * = - ' ! { ^ } l 8 n z F J Q.;.|.<+[+}+|+1+X.2+3+4+5+6+7+8+9+9+9+0+0+a+b+'+2+c+++|+d+e+8._+%+Y H f+g+h+l } ^ { ! ' - = * * # ",
": * = ; ) ~ < _ 2 6 b p v ^.i+y.|.j+k+l+L.^+ +m+n+o+p+q+r+s+s+t+t+t+u+u+v+9+w+b+'+`.^+@+l+x+3.y+z+A+G y c 6 2 _ < ~ ) ; = = * # ",
": = - ' ! ] / } 4 =+o r *.[...B+C+x+l+D+E+F+G+5+0+H+u+I+J+K+K+L+L+L+M+M+N+O+v+9+a+!+P+X.@+l+Q+2.R+ .K V S+:+4 } / ] ! ' - = * # ",
": = - ' ~ < _ 1 6 T+z R M U+B.S.V+r.L.E+2+G+W+X+u+I+Y+L+Z+`+ @.@.@.@ @+@@@#@J+$@H+w+n+%@&@D+r.V+k.*@Q.H f+=@6 1 _ < ~ ' - = * # ",
": = ; ) { / 9 l =+o -@P &+;.w.T.;+|+^+`.G+6+;@s+J+L+>@,@'@)@!@~@~@~@!@{@]@^@/@M+I+(@_@n+P+W.:@<@T.|.z+[@}@S+:+l 9 / { ) ; = * * ",
": - ; ! ] ( | 5 T+z V K |@x.C+[+/+++Y.1@o+;@s+2@3@`+{@4@5@6@7@8@8@8@7@9@0@!@a@Z+b@I+(@6+!+`.++c@u.2.d@Z *+f+=@5 | ( ] ! ; - * * ",
": - ' ~ ^ [ 3 A g+-@e@[.;.0.f@s.L..+3+g@9+s+2@3@h@{@0@7@i@j@k@l@l@l@k@m@8@n@o@]@`+#@p@H+a+q@r@D+s@5.N.z+[@F t@=+3 [ ^ ~ ' - = * ",
": ; ) { / } 4 a &.u J -.B.u@u.c@V.F+!+0+v+J+L+ @{@0@7@j@l@v@w@x@w@w@w@y@l@m@7@o@'@>@Y+$@9+z@F+A@c@x+B@~.C@W -+b 4 } / { ) ; = * ",
": ; ) ] ( | 5 b D@A.[@..).4.E.E@F@G@g@;@H@#@`+{@0@7@j@I@x@J@K@K@K@K@K@J@w@I@m@7@o@a@3@J+(@w+m+X.L.;+j+x.` J E c 5 | ( ] ) ; = * ",
": ; ) ] _ 2 6 (.c.W [.;.k.L@M@K.Y.G+0+r+J+Z+.@o@7@j@I@x@K@N@N@O@O@O@N@N@K@w@I@m@9@!@P@#@$@p+n+Z.Q@l+f@N.z+R@V S@6 2 _ ] ) ; = * ",
": ' ! < [ 3 8 g+f+O Z *@2.T@U.>+2+b+U@H@M+`+V@9@W@I@x@K@N@O@O@X@X@X@O@O@N@K@w@l@8@5@]@3@Y@(@Z@`@^+U. ##+;.=.Q p h+3 [ < ! ' = * ",
": ' ! ^ 9 l =+f :.J i.R+3..#+#F@G@a+H+I+L+ @4@7@j@w@J@N@O@@#X@##$###X@@#O@N@J@%#j@9@{@>@Y+&#w+'+*#|+=#2.*@C@W z -#l 9 ^ ! ' = * ",
": ' ! ^ 9 4 a &.V M  .'.;#E.D+r@'+o+(@J+3@a@0@8@l@x@K@N@O@##>#>#>#>#>###O@N@K@w@k@7@!@ @M+u+0+,#c+@+;+<+R+'#*+-+b 4 9 ^ ! ' = * ",
": ' ! ^ 9 4 a p F %...).T.s.)#c+!#6+r+2@Z+~#5@W@I@x@{#O@X@##>#>#>#>#>###X@O@{#x@I@]#~@.@^#O+p+4+Y.)#E.j+/#U+O y b 4 9 ^ ! ' = * ",
": ' ! ^ 9 4 m C F %...).T.s.(#c+!#_#r+2@>@{@5@:#I@x@N@O@X@>#>#>#>#>#>#>#X@O@N@x@I@]#~@.@L+t+9+4+Y.(#s@j+j.U+O r T+4 9 ^ ! ' = * ",
": ' ! ^ 9 4 m C F %...).T.s.(#c+!#_#r+2@>@{@5@:#I@x@N@O@X@$#>#>#>#>#>#$#X@O@N@x@I@]#~@.@L+t+9+4+Y.(#s@j+j.U+O r T+4 9 ^ ! ' = * ",
": ' ! ^ 9 4 a p F %...).T.s.)#c+!#w+v+J+Z+a@0@W@l@x@K@O@@###>#>#>#>#>###@#<#K@w@l@8@4@[##@s+7+G+Y.)#E.j+/#U+O y b 4 9 ^ ! ' = * ",
": ' ! ^ 9 4 a &.R <.}#j.j+t.|#.+m+o+(@J+3@.@~@8@k@w@K@N@O@X@##>#>#>###X@O@N@K@w@k@7@!@`+M+u+0+,#r@L.o.C+>.Q.H q m 4 9 ^ ! ' = * ",
": ' ! ^ 9 l =+f :.J i.,.C+=#G.E+,+g@q+p@#@ @!@7@:#I@x@K@N@O@X@X@X@X@X@O@N@K@w@I@W@9@{@Z+1#r+2#3+E+3#k+B@~.Y W z -#l 9 ^ ! ' = * ",
": ' ! < [ 3 8 g+f+*+4#*@2.x+c@1+5#b+9+u+2@>@~#0@8@l@v@J@K@N@O@O@O@O@O@N@K@J@y@k@7@o@h@L+p@;@g@%@>+c@Q+0.;.=.A.6#h+3 [ < ! ' = * ",
": ; ) ] _ 2 6 (.c.7#$.;.8#D.r.I.c+'+6+v+I+L+ @!@9@W@l@w@x@K@{#N@N@N@{#K@x@%#k@8@0@{@9#M+&#0#!+Y.K.d+6.).P.%.R g 6 2 _ ] ) ; = * ",
": ; ) ] ( | 5 b D@a#b# .'.j+<@3#E+,+b+9+u+Y+Z+.@4@9@W@k@y@x@x@J@J@J@x@w@y@k@8@9@!@,@L+c#;@d#,+e#|+=#8.,.Z O f#n 5 | ( ] ) ; = * ",
": ; ) { / } 4 a &.:.^.Z >.(+x+M.g#h#)+w+H+I+#@i#]@4@9@8@:#k@I@y@y@y@I@k@:#8@9@!@.@3@j#&#0+4+`.++k#e+#+l#Y G /.m 4 } / { ) ; = * ",
": - ' ~ ^ [ 3 A g+r W $.y.m#T.;+|+E+%@b+0+r+c##@`+.@!@0@7@8@W@:#:#:#W@8@n#0@!@,@3@2@u+9+g@,+E+|+t.o#).P.K V &.U 3 [ ^ ~ ' - = * ",
": - ; ! ] ( | 5 T+z p#<.U+,.(+q#k#K.]+G@g@9+r+c##@Z+ @~#!@o@0@9@9@9@0@o@!@a@`+L+2@s+U@o+'+c+I.M@e+S.*@#.H r =@5 | ( ] ! ; - * * ",
": = ; ) { / 9 l =+o r#s#[.%+N.j+=#G.1+Y.'+g@9+r+I+Y+L+`+ @.@~#{@{@{@a@h@`+Z+#@J+u+U@o+)+ +1+U.=#8.R.P.K V p :+l 9 / { ) ; = * * ",
": = - ' ~ < _ 1 6 T+z R N -.~.k.f@s@+#>+h#'+g@0+H+u+I+Y+#@3@Z+`+`+>@3@t#M+u#$@v#p+Z@)+Z.>+:@t.T.m#w#x#W r =@6 1 _ < ~ ' - = * # ",
": = - ' ! ] / } 4 =+o c.G h. .,.2.Q+}++#y#Y.G@b+z#9+v+u+p@J+J+2@2@2@J+N+O+v#;@6+b+'+Y.A@+#s@V+S.>.-.J :.p A#4 } / ] ! ' - = * # ",
": * = ; ) ~ < _ 2 6 b p B#*+C#D#R.l. #}+3#V..+2+)+b+z#9+;@v+v+r+r+r+E#H+9+_@g@)+,+r@+++#s@m.2.,. .[@b.q j 6 2 _ < ~ ) ; = = , $ ",
": * = - ' ! { ^ } l 8 n z V ^.&+%+'.u@Q+;+F#K.W.Y.%@G#~+g@o+o+6+6+6+a+g@n+)+P+Y.E+(#U.;+D.2.R+P.H#W I#d 8 l } ^ { ! ' - = , , % ",
": * * - ; ) ! ] _ | 4 =+d f.F J #.%+R.2.5.k+k#|+K.^+c+`.J#3+'+'+'+'+m+%@Z.c+E+K#3#M@=#7.L#R+..A+M#s o A#4 | _ ] ! ) ; - * , % % ",
": # * = - ' ) { ^ [ 1 5 a o y F J &+D#B.0.N#q#;+k#G.)#++^+F@.+.+.+.+e#^+++@+3#O#o.m.P#m#>.}.A+M#E &.e.5 1 [ ^ { ) ' - = * , $ % ",
": # * = - ; ' ! { / 9 2 6 m o y V ^.[.}.Q#).2.T.Q+o.s.k#U.|+D+D+D+E@|+G.k#p..#Q+;#S.'.;.-.[@W f#&.b 6 2 9 / { ! ' ; - = * * $ % ",
": # # = = - ; ' ~ ] ( 9 3 6 m o D@R H [@Q.D#>.|.S.<+6.Q+[+R#;+;+;+;+o.u.S#T.C+L#).~. .Y <.Q r T#b 6 3 9 ( ] ~ ' ; - = = # # $ % ",
": # # * * = - ; ) ~ < / 9 3 6 a (.C E b.I h.@.+.l#x.).#+S.C+<+<+<+<+C+U#w.N.d@;...#.[@P p#q V#k 6 3 9 / < ~ ) ; - = * * # # $ $ ",
": @ # # * = = - ' ) ~ ] ( 9 2 0 A n &.-+u Q J h.4#U+W#w#l#>.R+j.R+R+d@~.y.D#U+[.L H a#r C i A 0 2 9 ( ] ~ ) ' - = = * * # # $ % ",
": @ # # * * = - ; ' ) ~ < / [ 1 4 8 m d p y u Q H <.h.Y Q.'#U+U+U+-.@.#.[.R@J W V f+X#e b 8 4 1 [ / < ~ ) ' ; - = = * * # # $ & ",
": @ # # * * * = - ; ' ) ~ ] / _ | 3 5 A b d p -+f+R b.W H *+I J I ^.O M#Y#V E c.X#e Z#A 5 3 | _ / ] ~ ) ' ; - = = * * * # # $ `#",
": @ @ # # * * = - - ; ' ) ~ ] ^ ( 9 1 l 5 8 m n g+&. $.$r#f+B#B#B#s -@D q p o c m 8 5 l 1 9 ( ^ ] ~ ) ' ; - - = * * * # # $ % +$",
": @ @ # # # * * = = - ; ; ) ! { < ^ _ 9 1 3 0 6 8 a b n (.d g g g B d n b a 8 6 0 3 1 9 _ ^ < { ! ) ; ; - = = * * * # # # $ @$#$",
": @ @ @ # # # * * * = - - ; ' ) ~ { < / _ [ | 1 3 4 5 6 7 8 8 8 8 8 7 6 5 4 3 1 | [ _ / < { ~ ) ' ; - - = = * * * # # $ $ $ @$#$",
": @ @ @ @ # # # * * * = - - ; ; ) ! ~ ] < < ( _ [ } | 1 2 2 3 3 3 2 2 1 | } [ _ ( < < ] ~ ! ) ; ; - - = = * * * # $ $ $ $ % $$#$",
"  @ @ @ @ @ # # # * * * = = - - ; ' ) ! ~ ~ ] ] ^ / ( ( _ _ _ _ _ _ _ ( ( / ^ ] ] ~ ~ ! ) ' ; - - = = * * * * # $ $ $ $ $ $$$$#$",
"%$$$@ @ @ @ @ # # # # * * = = = - - ; ; ' ) ! ! ~ { { { ] ] ] ] ] ] ] { { { ~ ! ! ) ' ; ; - - = = = * * * * * $ $ $ $ $ $ $$$$#$",
"%$$$@ @ @ @ @ @ # # # * # * * * = = - - ; ; ; ' ' ) ) ) ! ! ! ! ! ! ! ) ) ) ' ' ; ; ; - - = = * * * * * * # # $ $ $ $ $ $$$$$$#$",
"%$&$@ @ @ @ @ @ @ # # # # # # * * = = = = - - - - ; ; ; ; ; ; ; ; ; ; ; ; ; - - - - = = = = * * * * * # # # $ $ $ $ $ $ $$$$@$*$",
"%$&$&$. . . . . &$. . @ @ @ @ @ @ @ @ @ @ # # # # # # # # # # # # # # # # # # # # # @ @ @ @ @ @ @ @ @ @ @ @ @ @ @ @ . &$&$&$=$-$"};
