/* XPM */
static char * player2_xpm[] = {
"64 64 552 2",
"  	c #010000",
". 	c #070203",
"+ 	c #060203",
"@ 	c #0D0306",
"# 	c #110509",
"$ 	c #120509",
"% 	c #130509",
"& 	c #140509",
"* 	c #15060C",
"= 	c #19080F",
"- 	c #1C0911",
"; 	c #1F0B13",
"> 	c #200B13",
", 	c #16060C",
"' 	c #210C15",
") 	c #240D17",
"! 	c #260F19",
"~ 	c #28101A",
"{ 	c #2A111C",
"] 	c #2C121D",
"^ 	c #2F1420",
"/ 	c #311521",
"( 	c #331622",
"_ 	c #341623",
": 	c #000000",
"< 	c #2E131E",
"[ 	c #361724",
"} 	c #391926",
"| 	c #3A1A27",
"1 	c #3B1A28",
"2 	c #3D1B29",
"3 	c #3E1C2A",
"4 	c #401D2C",
"5 	c #431E2E",
"6 	c #441F2F",
"7 	c #452030",
"8 	c #462031",
"9 	c #371825",
"0 	c #421E2D",
"a 	c #492233",
"b 	c #4B2334",
"c 	c #4E2436",
"d 	c #4F2537",
"e 	c #502538",
"f 	c #522739",
"g 	c #512638",
"h 	c #502637",
"i 	c #4E2437",
"j 	c #4C2335",
"k 	c #4A2233",
"l 	c #3F1C2B",
"m 	c #4A2334",
"n 	c #4D2436",
"o 	c #512639",
"p 	c #54283B",
"q 	c #572A3D",
"r 	c #5A2B3F",
"s 	c #5C2C41",
"t 	c #5D2D41",
"u 	c #5E2E43",
"v 	c #5E2D42",
"w 	c #5D2D42",
"x 	c #5B2B3F",
"y 	c #592A3E",
"z 	c #56293C",
"A 	c #472131",
"B 	c #502537",
"C 	c #55283B",
"D 	c #592B3E",
"E 	c #5C2D41",
"F 	c #612F44",
"G 	c #643147",
"H 	c #673249",
"I 	c #69344B",
"J 	c #6A344B",
"K 	c #6C354D",
"L 	c #6D364D",
"M 	c #6C354C",
"N 	c #6B344C",
"O 	c #68334A",
"P 	c #663248",
"Q 	c #633046",
"R 	c #5F2E43",
"S 	c #5B2C41",
"T 	c #562A3C",
"U 	c #482131",
"V 	c #602E44",
"W 	c #653147",
"X 	c #69334B",
"Y 	c #723851",
"Z 	c #753A53",
"` 	c #763B55",
" .	c #793C56",
"..	c #7A3D57",
"+.	c #7B3D57",
"@.	c #763A54",
"#.	c #733952",
"$.	c #713750",
"%.	c #6D354D",
"&.	c #D8532A",
"*.	c #541E28",
"=.	c #EF5828",
"-.	c #BF4933",
";.	c #682E44",
">.	c #653148",
",.	c #703850",
"'.	c #763B54",
").	c #7E3F5A",
"!.	c #82415D",
"~.	c #83425E",
"{.	c #864360",
"].	c #874461",
"^.	c #884462",
"/.	c #80405C",
"(.	c #753953",
"_.	c #703750",
":.	c #69334A",
"<.	c #57293C",
"[.	c #F2531F",
"}.	c #772829",
"|.	c #4E2537",
"1.	c #56283C",
"2.	c #F2521D",
"3.	c #F15321",
"4.	c #F05526",
"5.	c #873A4C",
"6.	c #783C56",
"7.	c #884461",
"8.	c #8A4664",
"9.	c #8E4866",
"0.	c #904968",
"a.	c #934A6A",
"b.	c #954B6B",
"c.	c #944B6B",
"d.	c #934B6A",
"e.	c #914968",
"f.	c #8E4765",
"g.	c #8B4663",
"h.	c #7D3F5A",
"i.	c #E9582F",
"j.	c #EF5627",
"k.	c #F1501B",
"l.	c #742930",
"m.	c #582A3D",
"n.	c #602F44",
"o.	c #F25421",
"p.	c #F14F1A",
"q.	c #F14E19",
"r.	c #F05426",
"s.	c #EB5731",
"t.	c #964660",
"u.	c #8F4967",
"v.	c #974D6D",
"w.	c #9B4F70",
"x.	c #9D5071",
"y.	c #A05173",
"z.	c #A25274",
"A.	c #A15274",
"B.	c #A05273",
"C.	c #9E5072",
"D.	c #9A4F6F",
"E.	c #904867",
"F.	c #8A4663",
"G.	c #84425F",
"H.	c #F0592C",
"I.	c #F2521E",
"J.	c #C64A31",
"K.	c #5D2A3B",
"L.	c #4C2434",
"M.	c #622F45",
"N.	c #E95831",
"O.	c #F1511C",
"P.	c #F1501C",
"Q.	c #F05529",
"R.	c #D05553",
"S.	c #A15170",
"T.	c #A35376",
"U.	c #A65578",
"V.	c #A95679",
"W.	c #AB587C",
"X.	c #AD597C",
"Y.	c #AC587C",
"Z.	c #A9577A",
"`.	c #A35475",
" +	c #F05A2E",
".+	c #F0572A",
"++	c #923741",
"@+	c #623045",
"#+	c #6B354C",
"$+	c #743A53",
"%+	c #F15323",
"&+	c #F0572D",
"*+	c #B65777",
"=+	c #B05B7F",
"-+	c #B25C81",
";+	c #B55D83",
">+	c #B65E84",
",+	c #B75E84",
"'+	c #B65E83",
")+	c #B35C81",
"!+	c #AD597D",
"~+	c #D35C60",
"{+	c #F0592F",
"]+	c #983D49",
"^+	c #683349",
"/+	c #482132",
"(+	c #582A3E",
"_+	c #F1562C",
":+	c #E85B4C",
"<+	c #C05F84",
"[+	c #BD6289",
"}+	c #BE628A",
"|+	c #BF638A",
"1+	c #BC6189",
"2+	c #BA6086",
"3+	c #F15A33",
"4+	c #F25627",
"5+	c #F1521E",
"6+	c #974053",
"7+	c #723951",
"8+	c #492133",
"9+	c #914A68",
"0+	c #F25624",
"a+	c #F25220",
"b+	c #F1582F",
"c+	c #CB6487",
"d+	c #C66690",
"e+	c #C76790",
"f+	c #C5668F",
"g+	c #EB6055",
"h+	c #F25A33",
"i+	c #E3563B",
"j+	c #8F445E",
"k+	c #7C3E59",
"l+	c #5B2C40",
"m+	c #502638",
"n+	c #472031",
"o+	c #723952",
"p+	c #7D3E59",
"q+	c #924A69",
"r+	c #9B4F6F",
"s+	c #E35B48",
"t+	c #F14F19",
"u+	c #F2572E",
"v+	c #F05C40",
"w+	c #D0698F",
"x+	c #CE6B95",
"y+	c #F35B35",
"z+	c #F25522",
"A+	c #AF4C63",
"B+	c #864460",
"C+	c #7B3E58",
"D+	c #70374F",
"E+	c #713850",
"F+	c #86435F",
"G+	c #904967",
"H+	c #994E6E",
"I+	c #A25374",
"J+	c #AA577A",
"K+	c #F25830",
"L+	c #ED5F56",
"M+	c #F25A34",
"N+	c #B65168",
"O+	c #984D6D",
"P+	c #84425E",
"Q+	c #55283C",
"R+	c #4C2435",
"S+	c #773B55",
"T+	c #83415D",
"U+	c #8D4765",
"V+	c #974D6C",
"W+	c #B15B80",
"X+	c #F2521F",
"Y+	c #B75570",
"Z+	c #8B4664",
"`+	c #81405C",
" @	c #4E2536",
".@	c #5B2B40",
"+@	c #944B6A",
"@@	c #9E5172",
"#@	c #A85679",
"$@	c #B05A7F",
"%@	c #F35625",
"&@	c #EA5946",
"*@	c #B45B7B",
"=@	c #A75678",
"-@	c #9E5071",
";@	c #6E364E",
">@	c #613045",
",@	c #783C55",
"'@	c #9A4E6F",
")@	c #A45477",
"!@	c #BD6188",
"~@	c #EA5F54",
"{@	c #C95E7C",
"]@	c #A45476",
"^@	c #83425D",
"/@	c #653248",
"(@	c #954C6B",
"_@	c #BB6087",
":@	c #C1648C",
"<@	c #CD607F",
"[@	c #BB6188",
"}@	c #B45C82",
"|@	c #9F5173",
"1@	c #884562",
"2@	c #53283A",
"3@	c #53273A",
"4@	c #8F4867",
"5@	c #AE597D",
"6@	c #B75F85",
"7@	c #CA6992",
"8@	c #CE6385",
"9@	c #C0648B",
"0@	c #AF5A7F",
"a@	c #8E4766",
"b@	c #733951",
"c@	c #57293D",
"d@	c #9F5172",
"e@	c #A9567A",
"f@	c #B25B80",
"g@	c #BA6087",
"h@	c #C86891",
"i@	c #CE6A95",
"j@	c #F3592C",
"k@	c #ED5D4F",
"l@	c #CC668E",
"m@	c #C4658E",
"n@	c #BB6187",
"o@	c #592B3F",
"p@	c #964D6C",
"q@	c #A25375",
"r@	c #BE6289",
"s@	c #CB6993",
"t@	c #D06C97",
"u@	c #E76878",
"v@	c #F1521D",
"w@	c #D9688A",
"x@	c #CD6A95",
"y@	c #C66790",
"z@	c #BF638B",
"A@	c #AC597D",
"B@	c #6D364E",
"C@	c #512739",
"D@	c #9A4E6E",
"E@	c #A55477",
"F@	c #AF5A7E",
"G@	c #B85F85",
"H@	c #C0638B",
"I@	c #C86790",
"J@	c #D26D99",
"K@	c #E76879",
"L@	c #EE5D52",
"M@	c #D16993",
"N@	c #CA6892",
"O@	c #C2648C",
"P@	c #B96086",
"Q@	c #994D6E",
"R@	c #8C4664",
"S@	c #5E2E42",
"T@	c #773B54",
"U@	c #9C5070",
"V@	c #A75679",
"W@	c #C2658D",
"X@	c #C96892",
"Y@	c #CF6B96",
"Z@	c #ED625C",
"`@	c #F3582B",
" #	c #F05B3F",
".#	c #CF678E",
"+#	c #BC6188",
"@#	c #B25B81",
"##	c #9C4F70",
"$#	c #492333",
"%#	c #934A69",
"&#	c #C3658D",
"*#	c #F15F46",
"=#	c #F25524",
"-#	c #CA6487",
";#	c #BD6288",
">#	c #B45D82",
",#	c #AA577B",
"'#	c #753A54",
")#	c #AB577B",
"!#	c #BD6189",
"~#	c #C4668E",
"{#	c #F35B34",
"]#	c #F1572E",
"^#	c #C46184",
"/#	c #84435F",
"(#	c #AB587B",
"_#	c #F25B34",
":#	c #F1562E",
"<#	c #D95B61",
"[#	c #AD5879",
"}#	c #85435F",
"|#	c #F15324",
"1#	c #ED5938",
"2#	c #A7516F",
"3#	c #F15931",
"4#	c #F0552A",
"5#	c #9F4A63",
"6#	c #783B55",
"7#	c #E35A47",
"8#	c #F25628",
"9#	c #F05527",
"0#	c #934159",
"a#	c #F05A2D",
"b#	c #F25321",
"c#	c #873A4D",
"d#	c #743952",
"e#	c #F05425",
"f#	c #DD5331",
"g#	c #652A38",
"h#	c #643047",
"i#	c #F0592B",
"j#	c #E95428",
"k#	c #62242D",
"l#	c #B84936",
"m#	c #DB5333",
"n#	c #F1511D",
"o#	c #F1521F",
"p#	c #F15220",
"q#	c #F15523",
"r#	c #F05627",
"s#	c #EF5628",
"t#	c #EF5626",
"u#	c #E95529",
"v#	c #61242C",
"w#	c #B74836",
"x#	c #DB5332",
"y#	c #DD5433",
"z#	c #EA582F",
"A#	c #F0572C",
"B#	c #F0582C",
"C#	c #F0582E",
"D#	c #F15830",
"E#	c #F15831",
"F#	c #F25931",
"G#	c #F25933",
"H#	c #F25934",
"I#	c #F35729",
"J#	c #F25731",
"K#	c #F25932",
"L#	c #ED5935",
"M#	c #E35842",
"N#	c #E0573E",
"O#	c #C54F47",
"P#	c #78384F",
"Q#	c #894562",
"R#	c #B95F86",
"S#	c #CF6C96",
"T#	c #D36E99",
"U#	c #D7709C",
"V#	c #E7687A",
"W#	c #F3582C",
"X#	c #DC6B8F",
"Y#	c #D56F9B",
"Z#	c #D16D98",
"`#	c #CC6A94",
" $	c #934B69",
".$	c #793C57",
"+$	c #602E43",
"@$	c #8F4866",
"#$	c #994D6D",
"$$	c #A35375",
"%$	c #B35C82",
"&$	c #D66F9B",
"*$	c #F15A3E",
"=$	c #D66C94",
"-$	c #CD6A94",
";$	c #984E6D",
">$	c #5A2B40",
",$	c #653247",
"'$	c #AE597E",
")$	c #D26D98",
"!$	c #D46E9A",
"~$	c #854360",
"{$	c #B55E83",
"]$	c #F25526",
"^$	c #D2668B",
"/$	c #CA6993",
"($	c #7F3F5A",
"_$	c #713951",
":$	c #6F374F",
"<$	c #A05274",
"[$	c #AE5A7E",
"}$	c #C3658E",
"|$	c #E36065",
"1$	c #CA688F",
"2$	c #492132",
"3$	c #5D2C41",
"4$	c #713851",
"5$	c #7B3D58",
"6$	c #A75578",
"7$	c #CE6282",
"8$	c #A55577",
"9$	c #BC6187",
"0$	c #DC626D",
"a$	c #EF5739",
"b$	c #C16083",
"c$	c #B95F85",
"d$	c #964C6C",
"e$	c #6F364F",
"f$	c #592A3F",
"g$	c #B85F86",
"h$	c #C35A77",
"i$	c #AD587D",
"j$	c #8C4764",
"k$	c #663148",
"l$	c #924A68",
"m$	c #ED5C3D",
"n$	c #B85775",
"o$	c #A25275",
"p$	c #914967",
"q$	c #4A2234",
"r$	c #7F405B",
"s$	c #D85654",
"t$	c #A55373",
"u$	c #5C2C40",
"v$	c #9D5070",
"w$	c #F05A2F",
"x$	c #B04D64",
"y$	c #974C6C",
"z$	c #52273A",
"A$	c #80405B",
"B$	c #9C485F",
"C$	c #4F2637",
"D$	c #7C3E58",
"E$	c #F25623",
"F$	c #A14453",
"G$	c #612F45",
"H$	c #DC563A",
"I$	c #933C4E",
"J$	c #55293C",
"K$	c #E0522E",
"L$	c #753548",
"M$	c #643046",
"N$	c #4C2334",
"O$	c #150609",
"P$	c #56293D",
"Q$	c #582B3E",
"R$	c #78303D",
"S$	c #110406",
"T$	c #0F0306",
"U$	c #100306",
"V$	c #0E0306",
"W$	c #020000",
"X$	c #080203",
"Y$	c #120406",
"Z$	c #090203",
"`$	c #0F0304",
"  . . . . . . + + + + @ @ @ @ @ @ @ @ @ @ # # # # $ % $ $ $ $ % % & % % % % % % % % @ @ @ @ @ @ @ @ @ @ @ @ @ @ @ @ + + + + + . ",
"  . @ @ @ @ @ @ @ # # # # # # * * = = = = - - - - ; ; ; ; ; ; ; > > > > ; ; - - - - = = = = , , , , , $ $ $ $ $ # # # # @ @ @ @ ",
"  @ @ @ @ @ @ @ # # # * # * * * = = - - ; ; ; ' ' ) ) ) ! ! ! ! ! ! ! ) ) ) ' ' ; ; ; - - = = , , , , , , $ # # # # # # @ @ @ @ ",
"  @ @ @ @ @ @ # # # # * * = = = - - ; ; ' ) ! ! ~ { { { ] ] ] ] ] ] ] { { { ~ ! ! ) ' ; ; - - = = = , , , * * # # # # # # @ @ @ ",
"  @ @ @ @ @ # # # * * * = = - - ; ' ) ! ~ ~ ] ] ^ / ( ( _ _ _ _ _ _ _ ( ( / ^ ] ] ~ ~ ! ) ' ; - - = = , * * * # # # # # # @ @ @ ",
": @ @ @ @ # # # * * * = - - ; ; ) ! ~ ] < < ( _ [ } | 1 2 2 3 3 3 2 2 1 | } [ _ ( < < ] ~ ! ) ; ; - - = = * * * # # # # # # @ @ ",
": @ @ @ # # # * * * = - - ; ' ) ~ { < / _ [ | 1 3 4 5 6 7 8 8 8 8 8 7 6 5 4 3 1 | [ _ / < { ~ ) ' ; - - = = * * * # # # # # @ @ ",
": @ @ # # # * * = = - ; ; ) ! { < ^ _ 9 1 3 0 6 8 a b c d e f f f g h i j k 8 6 0 3 1 9 _ ^ < { ! ) ; ; - = = * * * # # # # @ @ ",
": @ @ # # * * = - - ; ' ) ~ ] ^ ( 9 1 l 5 8 m n o p q r s t u u u v w x y z f d b A 5 l 1 9 ( ^ ] ~ ) ' ; - - = * * * # # # # @ ",
": @ # # * * * = - ; ' ) ~ ] / _ | 3 5 A b B C D E F G H I J K L K M N O P Q R S T o j U 5 3 | _ / ] ~ ) ' ; - = = * * * # # # # ",
": @ # # * * = - ; ' ) ~ < / [ 1 4 8 m d C r V W X L Y Z `  ...+..... .@.#.$.%.H Q w q o b 8 &.*.[ / < ~ ) ' ; - = = * * # # # # ",
": @ # # * = = - ' ) ~ ] ( 9 2 0 A n =.-.;.>.K ,.'.+.).!.~.{.].^.].].{.~./.). .(._.:.G t <.=.[.}.2 9 ( ] ~ ) ' - = = * * # # # # ",
": # # * * = - ; ) ~ < / 9 3 6 a |.1.2.3.4.5.6.).~.7.8.9.0.a.b.b.b.c.d.e.f.g.{.!.h.'.,.i.j.k.3.l.6 3 9 / < ~ ) ; - = * * # # # # ",
": # # = = - ; ' ~ ] ( 9 3 6 m o m.n.o.p.q.r.s.t.u.c.v.w.x.y.z.z.z.A.B.C.D.v.d.E.F.G.H.I.p.q.J.K.L.6 3 9 ( ] ~ ' ; - = = # # # # ",
": # * = - ; ' ! { / 9 2 6 m o D M.J N.O.q.q.P.Q.R.S.T.U.V.W.X.X.X.Y.Y.Z.U.`.y.D. +.+k.q.q.q.++v C L.6 2 9 / { ! ' ; - = * * # # ",
": # * = - ' ) { ^ [ 1 5 a o D @+#+$+).2.q.q.q.q.%+&+*+=+-+;+>+,+>+'+;+)+=+!+~+{+k.q.q.q.q.q.]+^+v C b 5 1 [ ^ { ) ' - = * * # # ",
": * * - ; ) ! ] _ | 4 /+d (+@+#+Z ).7.2.q.q.q.q.q.q._+:+<+[+}+|+|+|+[+1+2+3+4+k.q.q.q.q.q.5+6+7+^+t f 8+4 | _ ] ! ) ; - * * # # ",
": * = - ' ! { ^ } l 8 n z F J $+).7.9+0+p.q.q.q.q.q.q.a+b+c+d+e+e+e+f+g+h+k.q.q.q.q.q.q.q.i+j+k+Y H l+m+n+l } ^ { ! ' - = * * # ",
": * = ; ) ~ < _ 2 6 b p v :.o+p+7.q+r+s+O.q.q.q.q.q.t+t+t+u+v+w+x+x+y+z+p.t+q.q.q.q.q.q.q.A+0.B+C+D+G y c 6 2 _ < ~ ) ; = = * # ",
": = - ' ! ] / } 4 /+o r >.E+..F+G+H+I+J+2.q.q.q.t+t+t+t+t+t+P.K+L+M+P.t+t+t+t+t+q.q.q.q.q.N+O+9.P+ .K V Q+8+4 } / ] ! ' - = * # ",
": = - ' ~ < _ 1 6 R+z R M S+T+U+V+A.Z.W+2.q.t+t+t+t+t+t+t+t+t+t+a+p.t+t+t+t+t+t+t+q.q.q.X+Y+A.V+Z+`+$+H l+ @6 1 _ < ~ ' - = * # ",
": = ; ) { / 9 l /+o .@P 7+).F.+@@@#@$@,+%@p.t+t+t+t+t+t+t+t+t+t+t+t+t+t+t+t+t+t+t+t+t+q.&@*@=@-@+@7.C+;@>@Q+8+l 9 / { ) ; = * * ",
": - ; ! ] ( | 5 R+z V K ,@G.G+'@)@!+;+!@~@O.t+t+t+t+t+t+t+t+t+t+t+t+t+t+t+t+t+t+t+t+t+t+{@,+!+]@D.9.^@Z ^+l+ @5 | ( ] ! ; - * * ",
": - ' ~ ^ [ 3 A m+.@/@E+).g.(@B.Z.)+_@:@e+I.t+t+t+t+t+t+t+t+t+t+t+t+t+t+t+t+t+t+t+t+t+t+<@[@}@J+|@b.1@C+;@F 2@/+3 [ ^ ~ ' - = * ",
": ; ) { / } 4 a 3@u J '.T+4@D.]@5@6@}+f+7@I.t+t+t+t+t+t+t+t+t+t+t+t+t+t+t+t+t+t+t+t+t+a+8@9@6@0@]@H+a@/.b@W (+b 4 } / { ) ; = * ",
": ; ) ] ( | 5 b c@M.;@..].a.d@e@f@g@:@h@i@j@k.t+t+t+t+t+t+t+t+t+t+t+t+t+t+t+t+t+t+t+t+k@l@m@n@-+Z.@@q+G.` J E c 5 | ( ] ) ; = * ",
": ; ) ] _ 2 6 |.o@W E+).Z+p@q@Y.;+r@f+s@t@u@v@t+t+t+t+t+t+t+t+t+t+t+t+t+t+t+t+t+t+t+t+w@x@y@z@>+A@I+(@1@C+B@V C@6 2 _ ] ) ; = * ",
": ' ! < [ 3 8 m+l+O Z `+9.D@E@F@G@H@I@i@J@K@v@t+t+t+t+t+t+t+t+t+t+t+t+t+t+t+t+t+t+t+t+L@M@N@O@P@$@E@Q@R@).,.Q p n+3 [ < ! ' = * ",
": ' ! ^ 9 l /+f S@J T@P+0.U@V@f@g@W@X@Y@Z@`@k.t+t+t+t+t+t+t+t+t+t+t+t+t+t+t+t+t+t+t+t+a+ #.#m@+#@##@##9.`+b@W z $#l 9 ^ ! ' = * ",
": ' ! ^ 9 4 a 3@V M  .{.%#d@J+}@+#&#N@*#=#p.t+t+t+t+t+t+t+t+t+t+t+t+t+t+t+t+t+t+t+t+t+t+P.K+-#;#>#,#@@9+P+'#^+(+b 4 9 ^ ! ' = * ",
": ' ! ^ 9 4 a p F %...].+@B.)#>#!#~#{#X+p.t+t+t+t+t+t+t+t+t+t+t+t+t+t+t+t+t+t+t+t+t+t+t+t+t+]#^#;+)#d@q+/#S+O y b 4 9 ^ ! ' = * ",
": ' ! ^ 9 4 m C F %...].+@B.(#>#!#_#k.t+t+t+t+t+t+t+t+t+t+t+t+t+t+t+t+t+t+t+t+t+t+t+t+t+t+t+t+:#<#[#|@q+}#S+O r R+4 9 ^ ! ' = * ",
": ' ! ^ 9 4 m C F %...].+@B.(#>#h+k.t+t+t+t+t+t+t+t+t+t+t+t+t+t+t+t+t+t+t+t+t+t+t+t+t+t+t+t+t+q.|#1#2#q+}#S+O r R+4 9 ^ ! ' = * ",
": ' ! ^ 9 4 a p F %...].+@B.~+3#k.q.t+t+t+t+t+t+t+t+t+t+t+t+t+t+t+t+t+t+t+t+t+t+t+t+t+t+t+t+t+q.q.P.4#5#/#S+O y b 4 9 ^ ! ' = * ",
": ' ! ^ 9 4 a 3@R #+6#}#q+7#8#k.q.q.t+t+t+t+t+t+t+t+t+t+t+t+t+t+t+t+t+t+t+t+t+t+t+t+t+t+t+t+t+q.q.q.q.9#0#$+H q m 4 9 ^ ! ' = * ",
": ' ! ^ 9 l /+f S@J T@~.a#b#p.q.q.q.t+t+t+t+t+t+t+t+t+t+t+t+t+t+t+t+t+t+t+t+t+t+t+t+t+t+t+t+q.q.q.q.q.q.r.c#W z $#l 9 ^ ! ' = * ",
": ' ! < [ 3 8 m+l+^+d#H.k.q.q.q.q.q.t+t+t+t+t+t+t+t+t+t+t+t+t+t+t+t+t+t+t+t+t+t+t+t+t+t+t+t+q.q.q.q.q.q.q.e#f#g#n+3 [ < ! ' = * ",
": ; ) ] _ 2 6 |.o@h#i#k.q.q.q.q.q.q.t+t+t+t+t+t+t+t+t+t+t+t+t+t+t+t+t+t+t+t+t+t+t+t+t+t+t+t+q.q.q.q.q.q.q.q.5+j#k#2 _ ] ) ; = * ",
": ; ) ] ( | 5 b l#m#z+n#p.q.q.q.q.q.q.t+t+t+t+t+t+t+t+t+t+t+t+t+t+t+t+t+t+t+t+t+t+t+t+t+t+q.q.q.P.o#p#q#r#s#t#u#v#| ( ] ) ; = * ",
": ; ) { / } 4 a w#x#y#z#.+.+A#B#C#b+D#E#F#G#G#G#H#I#k.t+t+t+t+t+t+t+t+t+t+t+t+J#H#G#G#K#3#E#b+C#L#M#N#O#P#G <.m 4 } / { ) ; = * ",
": - ' ~ ^ [ 3 A m+r W $.p+Q#+@@@#@W+R#H@f+s@S#T#U#V#W#k.t+t+t+t+t+t+t+t+t+t+P.X#Y#Z#`#e+:@2+W+#@C. $]..$K V 3@U 3 [ ^ ~ ' - = * ",
": - ; ! ] ( | 5 R+z +$#+S+~.@$#$$$Y.%$g@:@e+s@S#T#&$V#v@t+t+t+t+t+t+t+t+t+t+*$=$Z#-$I@&#+#>#W.q@;$U+`+#.H r  @5 | ( ] ! ; - * * ",
": = ; ) { / 9 l /+o >$,$E+k+1@q+##U.'$;++#:@e+s@Y@)$!$o.p.t+t+t+t+t+t+t+t+t+w@t@`#I@&#[+'+'$E@##e.~$.$K V p 8+l 9 / { ) ; = * * ",
": = - ' ~ < _ 1 6 R+z R N './.Z+(@|@V@F@{$+#:@f+X@`#Y@*#O.t+t+t+t+t+t+t+t+]$^$/$y@O@[+>+F@=@C.+@Q#($_$W r  @6 1 _ < ~ ' - = * # ",
": = - ' ! ] / } 4 /+o o@G :$ .~.9.O+<$V@[$;+g@H@}$e+7@`#I.t+t+t+t+t+t+t+t+|$1$~#H@+#;+0@V@|@V+U+!.'.J S@p 2$4 } / ] ! ' - = * # ",
": * = ; ) ~ < _ 2 6 b p 3$^+4$5$~$u.Q@<$6$5@)+G@[+H@}$e+j@k.t+t+t+t+t+t+P.7$:@[+2+}@!+V@|@v.9.~. .;@@+q j 6 2 _ < ~ ) ; = = , $ ",
": * = - ' ! { ^ } l 8 n z V :.7+k+{.4@O+@@8$Y.=+;+R#9$|+0$v@q.t+t+t+q.q.a$b$c$;+W+(#E@@@d$9.P+.$e$W f$d 8 l } ^ { ! ' - = , , % ",
": * * - ; ) ! ] _ | 4 /+d m.F J #.k+~$9.b.r+$$#@Y.$@>#,+g$o.p.q.q.q.q.q.h$>#W+i$6$q@##d.j$P+..D+k$s o 2$4 | _ ] ! ) ; - * , % % ",
": # * = - ' ) { ^ [ 1 5 a o y F J 7+5$T+g.l$#$@@$$U.)#!+$@m$O.q.q.q.q.|#n$,#6$o$x.v.p$Q#!.6.D+k$E 3@q$5 1 [ ^ { ) ' - = * , $ % ",
": # * = - ; ' ! { / 9 2 6 m o y V :.E+6.r$].9.+@O+x.B.$$E@#@2.q.q.q.q.s$t$y.U@O+%#U+{.).'.;@W u$3@b 6 2 9 / { ! ' ; - = * * $ % ",
": # # = = - ; ' ~ ] ( 9 3 6 m o c@R H ;@$+5$!.7.U+9+c.O+'@v$w$k.q.q.q.x$y$+@G+j$]./. .Y #+Q r z$b 6 3 9 ( ] ~ ' ; - = = # # $ % ",
": # # * * = - ; ) ~ < / 9 3 6 a |.C E @+I :$@.+.A$G.].R@U+G+9+2.q.q.9#B$F.1@^@)...#.;@P +$q C$k 6 3 9 / < ~ ) ; - = * * # # $ $ ",
": @ # # * = = - ' ) ~ ] ( 9 2 0 A n 3@(+u Q J :$d#S+D$($A$!.P+E$p.q.F$/.p+5$S+E+L H G$r C i A 0 2 9 ( ] ~ ) ' - = = * * # # $ % ",
": @ # # * * = - ; ' ) ~ < / [ 1 4 8 m d p y u Q H #+:$Y $+'#S+H$O.5+I$#.E+B@J W V l+J$e b 8 4 1 [ / < ~ ) ' ; - = = * * # # $ & ",
": @ # # * * * = - ; ' ) ~ ] / _ | 3 5 A b d p (+l+R @+W H ^+I J 2.K$L$k$M$V E o@J$e N$A 5 3 | _ / ] ~ ) ' ; - = = * * * # # $ O$",
": @ @ # # * * = - - ; ' ) ~ ] ^ ( 9 1 l 5 8 m n m+3@P$Q$>$l+3$3$=.R$.@D q p o c m 8 5 l 1 9 ( ^ ] ~ ) ' ; - - = * * * # # $ % S$",
": @ @ # # # * * = = - ; ; ) ! { < ^ _ 9 1 3 0 6 8 a b n |.d g g g B d n b a 8 6 0 3 1 9 _ ^ < { ! ) ; ; - = = * * * # # # $ T$U$",
": @ @ @ # # # * * * = - - ; ' ) ~ { < / _ [ | 1 3 4 5 6 7 8 8 8 8 8 7 6 5 4 3 1 | [ _ / < { ~ ) ' ; - - = = * * * # # $ $ $ T$U$",
": @ @ @ @ # # # * * * = - - ; ; ) ! ~ ] < < ( _ [ } | 1 2 2 3 3 3 2 2 1 | } [ _ ( < < ] ~ ! ) ; ; - - = = * * * # $ $ $ $ % V$U$",
"  @ @ @ @ @ # # # * * * = = - - ; ' ) ! ~ ~ ] ] ^ / ( ( _ _ _ _ _ _ _ ( ( / ^ ] ] ~ ~ ! ) ' ; - - = = * * * * # $ $ $ $ $ V$V$U$",
"W$V$@ @ @ @ @ # # # # * * = = = - - ; ; ' ) ! ! ~ { { { ] ] ] ] ] ] ] { { { ~ ! ! ) ' ; ; - - = = = * * * * * $ $ $ $ $ $ V$V$U$",
"W$V$@ @ @ @ @ @ # # # * # * * * = = - - ; ; ; ' ' ) ) ) ! ! ! ! ! ! ! ) ) ) ' ' ; ; ; - - = = * * * * * * # # $ $ $ $ $ V$V$V$U$",
"W$X$@ @ @ @ @ @ @ # # # # # # * * = = = = - - - - ; ; ; ; ; ; ; ; ; ; ; ; ; - - - - = = = = * * * * * # # # $ $ $ $ $ $ V$V$T$Y$",
"W$X$X$. . . . . X$. . @ @ @ @ @ @ @ @ @ @ # # # # # # # # # # # # # # # # # # # # # @ @ @ @ @ @ @ @ @ @ @ @ @ @ @ @ . X$X$X$Z$`$"};
