/* XPM */
static char * wall_xpm[] = {
"64 64 48 1",
" 	c #000000",
".	c #571E0B",
"+	c #782D13",
"@	c #863316",
"#	c #8C3618",
"$	c #913819",
"%	c #BF4C24",
"&	c #CA5127",
"*	c #CE5328",
"=	c #DB582B",
"-	c #DE5A2C",
";	c #E45C2D",
">	c #ED602F",
",	c #EE602F",
"'	c #E55C2D",
")	c #AE4520",
"!	c #CE5228",
"~	c #E85E2E",
"{	c #F36331",
"]	c #361004",
"^	c #6D2810",
"/	c #4D1A08",
"(	c #963A1A",
"_	c #561E0A",
":	c #A6411E",
"<	c #5B200C",
"[	c #AD4420",
"}	c #5E210C",
"|	c #B44721",
"1	c #C34E25",
"2	c #D15428",
"3	c #C54F25",
"4	c #DC592B",
"5	c #E05A2C",
"6	c #D6562A",
"7	c #DF5A2C",
"8	c #EC602F",
"9	c #EA5F2F",
"0	c #833115",
"a	c #A9421F",
"b	c #BA4A23",
"c	c #C95026",
"d	c #D7562A",
"e	c #EF6130",
"f	c #F66432",
"g	c #EB5F2F",
"h	c #D25429",
"i	c #9E3D1C",
"                                                                ",
"                                                                ",
"                                                                ",
"                                                                ",
"                                                                ",
"                                                                ",
"                                                                ",
"              ..                                                ",
"              ++                                                ",
"         ++   @@   ++                                           ",
"          ##  $$  ##                                            ",
"           #%%&&%%#                                             ",
"           #*=--=*#                                             ",
"           #*;>,'*#                                             ",
"       .$)%!=~{{~=!%)$.                                         ",
"           #*',,'*#                                             ",
"           #*=--=*#                                             ",
"           #%%&&%%#                                             ",
"          ##  $$  ##                                            ",
"         ++   @@   ++                                           ",
"              ++                                                ",
"              ..                                                ",
"                                                                ",
"                                                                ",
"                                                                ",
"                                                                ",
"                                                                ",
"                                                       .        ",
"                                                       $        ",
"                                                  +    )    +   ",
"                                                  +#   %   #+   ",
"                                                   ####!####    ",
"                                                    %**=**%     ",
"                                                    %=;~'=%     ",
"                                                .+@$&->{,-&$@+. ",
"                                                .+@$&-,{,-&$@+. ",
"                                                    %='~'=%     ",
"                                                    %**=**%     ",
"                                                   ####!####    ",
"                                                  +#   %   #+   ",
"                                                  +    )    +   ",
"                                                       $        ",
"                          ]^                           .        ",
"                          /(                                    ",
"                     /(   _:   /(                               ",
"                      <[  }|  <[                                ",
"                       <%%12%%[                                 ",
"                       <3=45=6[                                 ",
"                       <378,96[                                 ",
"                   ]0abcd;efg7h1|i^                             ",
"                       <37,,96[                                 ",
"                       <3=45=6[                                 ",
"                       <%%12%%[                                 ",
"                      <[  }|  <[                                ",
"                     /(   _:   /(                               ",
"                          /(                                    ",
"                          ]^                                    ",
"                                                                ",
"                                                                ",
"                                                                ",
"                                                                ",
"                                                                ",
"                                                                ",
"                                                                "};
